<?xml version="1.0" encoding="utf-8"?>
<!-- Generator: Adobe Illustrator 13.0.1, SVG Export Plug-In . SVG Version: 6.00 Build 14948)  -->
<svg version="1.2" baseProfile="tiny" id="Laag_1" xmlns="http://www.w3.org/2000/svg" xmlns:xlink="http://www.w3.org/1999/xlink"
	 x="0px" y="0px" width="128.434px" height="128.434px" viewBox="0 0 128.434 128.434" xml:space="preserve">
<path fill="none" stroke="#000000" stroke-width="6" stroke-miterlimit="1" d="M63.304,55.863"/>
<path d="M67.12,10.834l6.162,0.066l14.127,40.33l-5.962-0.068l-3.941-12.07l-15.885-0.178L57.14,50.891l-5.582-0.053L67.12,10.834z
	 M75.806,34.644l-5.902-17.819l-6.672,17.678L75.806,34.644z"/>
<polyline fill="none" stroke="#000000" stroke-width="5" stroke-linecap="square" stroke-miterlimit="10" points="22.885,113.649 
	14.544,109.008 7.924,103.598 3.284,97.559 0.844,91.018 0.844,84.158 3.284,77.618 7.924,71.578 14.544,66.168 22.885,61.529 
	32.725,57.769 43.824,55.029 55.924,53.428 68.775,53.098 81.304,54.079 92.935,56.259 103.435,59.529 112.554,63.739 
	120.065,68.789 125.725,74.519 "/>
</svg>
