<?xml version="1.0" encoding="utf-8"?>
<!-- Generator: Adobe Illustrator 13.0.1, SVG Export Plug-In . SVG Version: 6.00 Build 14948)  -->
<svg version="1.2" baseProfile="tiny" id="Laag_1" xmlns="http://www.w3.org/2000/svg" xmlns:xlink="http://www.w3.org/1999/xlink"
	 x="0px" y="0px" width="128.434px" height="128.434px" viewBox="0 0 128.434 128.434" xml:space="preserve">
<path fill="none" stroke="#000000" stroke-width="6" stroke-miterlimit="1" d="M63.304,55.863"/>
<path fill="none" stroke="#000000" stroke-width="6" stroke-linecap="round" stroke-miterlimit="2" d="M31.389,16.289
	c-2.925,3.152-6.175,15.876-8.29,21.136C18.656,48.479,11.253,72.311,17.2,85.903c6.445,14.73,16.9-1.881,22.31-9.307
	c11.779-16.164,22.936-35.392,36.394-46.495c6.737-5.562,13.297-9.003,20.614-10.858c4.78-1.211,14.835-4.261,18.26,4.741
	c3.706,9.739-2.348,23.826-5.505,31.09c-5.641,12.952-12.602,23.938-19.853,33.611c-7.334,9.777-13.704,21.202-22.763,25.062"/>
<rect x="24.801" y="9.551" stroke="#000000" stroke-width="6" stroke-linecap="round" stroke-miterlimit="2" width="9.333" height="9.333"/>
<rect x="61.051" y="111.051" stroke="#000000" stroke-width="6" stroke-linecap="round" stroke-miterlimit="2" width="9.333" height="9.332"/>
<rect x="55.551" y="42.301" stroke="#000000" stroke-width="6" stroke-linecap="round" stroke-miterlimit="2" width="9.333" height="9.333"/>
</svg>
